<mxfile host="app.diagrams.net" agent="Mozilla/5.0 (Windows NT 10.0; Win64; x64) AppleWebKit/537.36 (KHTML, like Gecko) Chrome/128.0.0.0 Safari/537.36" version="24.7.7">
  <diagram id="C5RBs43oDa-KdzZeNtuy" name="Page-1">
    <mxGraphModel dx="2587" dy="852" grid="1" gridSize="10" guides="1" tooltips="1" connect="1" arrows="1" fold="1" page="1" pageScale="1" pageWidth="827" pageHeight="1169" math="0" shadow="0">
      <root>
        <mxCell id="WIyWlLk6GJQsqaUBKTNV-0" />
        <mxCell id="WIyWlLk6GJQsqaUBKTNV-1" parent="WIyWlLk6GJQsqaUBKTNV-0" />
        <mxCell id="WIyWlLk6GJQsqaUBKTNV-2" value="" style="rounded=0;html=1;jettySize=auto;orthogonalLoop=1;fontSize=11;endArrow=block;endFill=0;endSize=8;strokeWidth=1;shadow=0;labelBackgroundColor=none;edgeStyle=orthogonalEdgeStyle;" parent="WIyWlLk6GJQsqaUBKTNV-1" source="WIyWlLk6GJQsqaUBKTNV-3" target="p0zd2kvGIdmpdCBqgYAA-1" edge="1">
          <mxGeometry relative="1" as="geometry">
            <mxPoint x="220" y="170" as="targetPoint" />
          </mxGeometry>
        </mxCell>
        <mxCell id="WIyWlLk6GJQsqaUBKTNV-3" value="Inicio del programa" style="rounded=1;whiteSpace=wrap;html=1;fontSize=12;glass=0;strokeWidth=1;shadow=0;fillColor=#d5e8d4;strokeColor=#82b366;" parent="WIyWlLk6GJQsqaUBKTNV-1" vertex="1">
          <mxGeometry x="160" y="80" width="120" height="40" as="geometry" />
        </mxCell>
        <mxCell id="WIyWlLk6GJQsqaUBKTNV-9" value="2" style="edgeStyle=orthogonalEdgeStyle;rounded=0;html=1;jettySize=auto;orthogonalLoop=1;fontSize=11;endArrow=block;endFill=0;endSize=8;strokeWidth=1;shadow=0;labelBackgroundColor=none;" parent="WIyWlLk6GJQsqaUBKTNV-1" source="WIyWlLk6GJQsqaUBKTNV-10" target="WIyWlLk6GJQsqaUBKTNV-12" edge="1">
          <mxGeometry x="-0.9412" y="15" relative="1" as="geometry">
            <mxPoint as="offset" />
          </mxGeometry>
        </mxCell>
        <mxCell id="WIyWlLk6GJQsqaUBKTNV-10" value="Cuál es el&amp;nbsp;&lt;div&gt;valor de&amp;nbsp;&lt;/div&gt;&lt;div&gt;opción&lt;/div&gt;" style="rhombus;whiteSpace=wrap;html=1;shadow=0;fontFamily=Helvetica;fontSize=12;align=center;strokeWidth=1;spacing=6;spacingTop=-4;fillColor=#dae8fc;strokeColor=#6c8ebf;" parent="WIyWlLk6GJQsqaUBKTNV-1" vertex="1">
          <mxGeometry x="140" y="390" width="160" height="100" as="geometry" />
        </mxCell>
        <mxCell id="WIyWlLk6GJQsqaUBKTNV-11" value="Suma" style="rounded=1;whiteSpace=wrap;html=1;fontSize=12;glass=0;strokeWidth=1;shadow=0;fillColor=#d5e8d4;strokeColor=#82b366;" parent="WIyWlLk6GJQsqaUBKTNV-1" vertex="1">
          <mxGeometry x="160" y="670" width="120" height="40" as="geometry" />
        </mxCell>
        <mxCell id="WIyWlLk6GJQsqaUBKTNV-12" value="Salta a la resta" style="rounded=1;whiteSpace=wrap;html=1;fontSize=12;glass=0;strokeWidth=1;shadow=0;fillColor=#d5e8d4;strokeColor=#82b366;" parent="WIyWlLk6GJQsqaUBKTNV-1" vertex="1">
          <mxGeometry x="430" y="420" width="120" height="40" as="geometry" />
        </mxCell>
        <mxCell id="p0zd2kvGIdmpdCBqgYAA-1" value="Se muestra&lt;div&gt;el menú en pantalla&lt;/div&gt;" style="rounded=1;whiteSpace=wrap;html=1;fontSize=12;glass=0;strokeWidth=1;shadow=0;fillColor=#d5e8d4;strokeColor=#82b366;" vertex="1" parent="WIyWlLk6GJQsqaUBKTNV-1">
          <mxGeometry x="160" y="160" width="120" height="40" as="geometry" />
        </mxCell>
        <mxCell id="p0zd2kvGIdmpdCBqgYAA-3" value="" style="rounded=0;html=1;jettySize=auto;orthogonalLoop=1;fontSize=11;endArrow=block;endFill=0;endSize=8;strokeWidth=1;shadow=0;labelBackgroundColor=none;edgeStyle=orthogonalEdgeStyle;" edge="1" parent="WIyWlLk6GJQsqaUBKTNV-1" target="p0zd2kvGIdmpdCBqgYAA-2">
          <mxGeometry y="20" relative="1" as="geometry">
            <mxPoint as="offset" />
            <mxPoint x="220" y="250" as="sourcePoint" />
            <mxPoint x="230" y="350" as="targetPoint" />
          </mxGeometry>
        </mxCell>
        <mxCell id="p0zd2kvGIdmpdCBqgYAA-2" value="Se captura la opción&lt;div&gt;del usuario&lt;/div&gt;" style="rounded=1;whiteSpace=wrap;html=1;fontSize=12;glass=0;strokeWidth=1;shadow=0;fillColor=#d5e8d4;strokeColor=#82b366;" vertex="1" parent="WIyWlLk6GJQsqaUBKTNV-1">
          <mxGeometry x="160" y="240" width="120" height="40" as="geometry" />
        </mxCell>
        <mxCell id="p0zd2kvGIdmpdCBqgYAA-5" value="" style="rounded=0;html=1;jettySize=auto;orthogonalLoop=1;fontSize=11;endArrow=block;endFill=0;endSize=8;strokeWidth=1;shadow=0;labelBackgroundColor=none;edgeStyle=orthogonalEdgeStyle;entryX=0.5;entryY=0;entryDx=0;entryDy=0;" edge="1" parent="WIyWlLk6GJQsqaUBKTNV-1" target="p0zd2kvGIdmpdCBqgYAA-2">
          <mxGeometry relative="1" as="geometry">
            <mxPoint x="219.5" y="200" as="sourcePoint" />
            <mxPoint x="219.5" y="240" as="targetPoint" />
          </mxGeometry>
        </mxCell>
        <mxCell id="p0zd2kvGIdmpdCBqgYAA-6" value="Se convierte la opción en un entero" style="rounded=1;whiteSpace=wrap;html=1;fontSize=12;glass=0;strokeWidth=1;shadow=0;fillColor=#d5e8d4;strokeColor=#82b366;" vertex="1" parent="WIyWlLk6GJQsqaUBKTNV-1">
          <mxGeometry x="160" y="320" width="120" height="40" as="geometry" />
        </mxCell>
        <mxCell id="p0zd2kvGIdmpdCBqgYAA-7" value="" style="rounded=0;html=1;jettySize=auto;orthogonalLoop=1;fontSize=11;endArrow=block;endFill=0;endSize=8;strokeWidth=1;shadow=0;labelBackgroundColor=none;edgeStyle=orthogonalEdgeStyle;entryX=0.5;entryY=0;entryDx=0;entryDy=0;" edge="1" parent="WIyWlLk6GJQsqaUBKTNV-1">
          <mxGeometry relative="1" as="geometry">
            <mxPoint x="219.5" y="280" as="sourcePoint" />
            <mxPoint x="220" y="320" as="targetPoint" />
          </mxGeometry>
        </mxCell>
        <mxCell id="p0zd2kvGIdmpdCBqgYAA-8" value="" style="rounded=0;html=1;jettySize=auto;orthogonalLoop=1;fontSize=11;endArrow=block;endFill=0;endSize=8;strokeWidth=1;shadow=0;labelBackgroundColor=none;edgeStyle=orthogonalEdgeStyle;entryX=0.5;entryY=0;entryDx=0;entryDy=0;" edge="1" parent="WIyWlLk6GJQsqaUBKTNV-1" target="WIyWlLk6GJQsqaUBKTNV-10">
          <mxGeometry relative="1" as="geometry">
            <mxPoint x="219.5" y="360" as="sourcePoint" />
            <mxPoint x="220" y="380" as="targetPoint" />
          </mxGeometry>
        </mxCell>
        <mxCell id="p0zd2kvGIdmpdCBqgYAA-9" value="" style="rounded=0;html=1;jettySize=auto;orthogonalLoop=1;fontSize=11;endArrow=block;endFill=0;endSize=8;strokeWidth=1;shadow=0;labelBackgroundColor=none;edgeStyle=orthogonalEdgeStyle;entryX=0.5;entryY=0;entryDx=0;entryDy=0;" edge="1" parent="WIyWlLk6GJQsqaUBKTNV-1" target="p0zd2kvGIdmpdCBqgYAA-10">
          <mxGeometry relative="1" as="geometry">
            <mxPoint x="219.5" y="490" as="sourcePoint" />
            <mxPoint x="220" y="555" as="targetPoint" />
          </mxGeometry>
        </mxCell>
        <mxCell id="p0zd2kvGIdmpdCBqgYAA-10" value="Saltar a la suma" style="rounded=1;whiteSpace=wrap;html=1;fontSize=12;glass=0;strokeWidth=1;shadow=0;fillColor=#d5e8d4;strokeColor=#82b366;" vertex="1" parent="WIyWlLk6GJQsqaUBKTNV-1">
          <mxGeometry x="160" y="565" width="120" height="40" as="geometry" />
        </mxCell>
        <mxCell id="p0zd2kvGIdmpdCBqgYAA-13" value="&lt;span style=&quot;color: rgb(0, 0, 0); font-family: Helvetica; font-size: 11px; font-style: normal; font-variant-ligatures: normal; font-variant-caps: normal; font-weight: 400; letter-spacing: normal; orphans: 2; text-align: center; text-indent: 0px; text-transform: none; widows: 2; word-spacing: 0px; -webkit-text-stroke-width: 0px; white-space: nowrap; background-color: rgb(251, 251, 251); text-decoration-thickness: initial; text-decoration-style: initial; text-decoration-color: initial; display: inline !important; float: none;&quot;&gt;1&lt;/span&gt;" style="text;whiteSpace=wrap;html=1;" vertex="1" parent="WIyWlLk6GJQsqaUBKTNV-1">
          <mxGeometry x="200" y="480" width="50" height="40" as="geometry" />
        </mxCell>
        <mxCell id="p0zd2kvGIdmpdCBqgYAA-14" value="3" style="edgeStyle=orthogonalEdgeStyle;rounded=0;html=1;jettySize=auto;orthogonalLoop=1;fontSize=11;endArrow=block;endFill=0;endSize=8;strokeWidth=1;shadow=0;labelBackgroundColor=none;exitX=0;exitY=0.5;exitDx=0;exitDy=0;entryX=1;entryY=0.5;entryDx=0;entryDy=0;" edge="1" parent="WIyWlLk6GJQsqaUBKTNV-1" source="WIyWlLk6GJQsqaUBKTNV-10" target="p0zd2kvGIdmpdCBqgYAA-15">
          <mxGeometry x="-0.9098" y="-21" relative="1" as="geometry">
            <mxPoint x="5" y="1" as="offset" />
            <mxPoint x="30" y="450" as="sourcePoint" />
            <mxPoint x="40" y="440" as="targetPoint" />
            <Array as="points" />
          </mxGeometry>
        </mxCell>
        <mxCell id="p0zd2kvGIdmpdCBqgYAA-15" value="Saltar a la Multiplicación" style="rounded=1;whiteSpace=wrap;html=1;fontSize=12;glass=0;strokeWidth=1;shadow=0;fillColor=#d5e8d4;strokeColor=#82b366;" vertex="1" parent="WIyWlLk6GJQsqaUBKTNV-1">
          <mxGeometry x="-90" y="420" width="120" height="40" as="geometry" />
        </mxCell>
        <mxCell id="p0zd2kvGIdmpdCBqgYAA-17" value="4" style="edgeStyle=orthogonalEdgeStyle;rounded=0;html=1;jettySize=auto;orthogonalLoop=1;fontSize=11;endArrow=block;endFill=0;endSize=8;strokeWidth=1;shadow=0;labelBackgroundColor=none;exitX=0.196;exitY=0.728;exitDx=0;exitDy=0;exitPerimeter=0;" edge="1" parent="WIyWlLk6GJQsqaUBKTNV-1" source="WIyWlLk6GJQsqaUBKTNV-10">
          <mxGeometry x="-0.9098" y="-21" relative="1" as="geometry">
            <mxPoint x="5" y="1" as="offset" />
            <mxPoint x="130" y="490" as="sourcePoint" />
            <mxPoint x="40" y="560" as="targetPoint" />
            <Array as="points">
              <mxPoint x="171" y="490" />
              <mxPoint x="41" y="490" />
              <mxPoint x="41" y="520" />
            </Array>
          </mxGeometry>
        </mxCell>
        <mxCell id="p0zd2kvGIdmpdCBqgYAA-19" value="5" style="edgeStyle=orthogonalEdgeStyle;rounded=0;html=1;jettySize=auto;orthogonalLoop=1;fontSize=11;endArrow=block;endFill=0;endSize=8;strokeWidth=1;shadow=0;labelBackgroundColor=none;exitX=0.712;exitY=0.839;exitDx=0;exitDy=0;exitPerimeter=0;entryX=0.5;entryY=0;entryDx=0;entryDy=0;" edge="1" parent="WIyWlLk6GJQsqaUBKTNV-1" source="WIyWlLk6GJQsqaUBKTNV-10" target="p0zd2kvGIdmpdCBqgYAA-30">
          <mxGeometry x="-0.4926" y="14" relative="1" as="geometry">
            <mxPoint as="offset" />
            <mxPoint x="253.43999999999983" y="490.00000000000006" as="sourcePoint" />
            <mxPoint x="400" y="537.3" as="targetPoint" />
          </mxGeometry>
        </mxCell>
        <mxCell id="p0zd2kvGIdmpdCBqgYAA-21" value="Salta a la división" style="rounded=1;whiteSpace=wrap;html=1;fontSize=12;glass=0;strokeWidth=1;shadow=0;fillColor=#d5e8d4;strokeColor=#82b366;" vertex="1" parent="WIyWlLk6GJQsqaUBKTNV-1">
          <mxGeometry x="-20" y="565" width="120" height="40" as="geometry" />
        </mxCell>
        <mxCell id="p0zd2kvGIdmpdCBqgYAA-25" value="" style="rounded=0;html=1;jettySize=auto;orthogonalLoop=1;fontSize=11;endArrow=block;endFill=0;endSize=8;strokeWidth=1;shadow=0;labelBackgroundColor=none;edgeStyle=orthogonalEdgeStyle;entryX=0.5;entryY=0;entryDx=0;entryDy=0;" edge="1" parent="WIyWlLk6GJQsqaUBKTNV-1" target="WIyWlLk6GJQsqaUBKTNV-11">
          <mxGeometry relative="1" as="geometry">
            <mxPoint x="219.73" y="610" as="sourcePoint" />
            <mxPoint x="219.73" y="650" as="targetPoint" />
          </mxGeometry>
        </mxCell>
        <mxCell id="p0zd2kvGIdmpdCBqgYAA-26" value="División" style="rounded=1;whiteSpace=wrap;html=1;fontSize=12;glass=0;strokeWidth=1;shadow=0;fillColor=#d5e8d4;strokeColor=#82b366;" vertex="1" parent="WIyWlLk6GJQsqaUBKTNV-1">
          <mxGeometry x="-20" y="680" width="120" height="40" as="geometry" />
        </mxCell>
        <mxCell id="p0zd2kvGIdmpdCBqgYAA-27" value="" style="rounded=0;html=1;jettySize=auto;orthogonalLoop=1;fontSize=11;endArrow=block;endFill=0;endSize=8;strokeWidth=1;shadow=0;labelBackgroundColor=none;edgeStyle=orthogonalEdgeStyle;entryX=0.5;entryY=0;entryDx=0;entryDy=0;entryPerimeter=0;" edge="1" parent="WIyWlLk6GJQsqaUBKTNV-1" target="p0zd2kvGIdmpdCBqgYAA-26">
          <mxGeometry relative="1" as="geometry">
            <mxPoint x="39.629999999999995" y="605" as="sourcePoint" />
            <mxPoint x="39.629999999999995" y="645" as="targetPoint" />
          </mxGeometry>
        </mxCell>
        <mxCell id="p0zd2kvGIdmpdCBqgYAA-28" value="Multiplicación" style="rounded=1;whiteSpace=wrap;html=1;fontSize=12;glass=0;strokeWidth=1;shadow=0;fillColor=#d5e8d4;strokeColor=#82b366;" vertex="1" parent="WIyWlLk6GJQsqaUBKTNV-1">
          <mxGeometry x="-220" y="680" width="120" height="40" as="geometry" />
        </mxCell>
        <mxCell id="p0zd2kvGIdmpdCBqgYAA-29" value="" style="rounded=0;html=1;jettySize=auto;orthogonalLoop=1;fontSize=11;endArrow=block;endFill=0;endSize=8;strokeWidth=1;shadow=0;labelBackgroundColor=none;edgeStyle=orthogonalEdgeStyle;entryX=0.5;entryY=0;entryDx=0;entryDy=0;entryPerimeter=0;" edge="1" parent="WIyWlLk6GJQsqaUBKTNV-1" target="p0zd2kvGIdmpdCBqgYAA-28">
          <mxGeometry relative="1" as="geometry">
            <mxPoint x="-30.430000000000007" y="460" as="sourcePoint" />
            <mxPoint x="-30.060000000000002" y="505" as="targetPoint" />
          </mxGeometry>
        </mxCell>
        <mxCell id="p0zd2kvGIdmpdCBqgYAA-30" value="Salir" style="rounded=1;whiteSpace=wrap;html=1;fontSize=12;glass=0;strokeWidth=1;shadow=0;fillColor=#d5e8d4;strokeColor=#82b366;" vertex="1" parent="WIyWlLk6GJQsqaUBKTNV-1">
          <mxGeometry x="310" y="500" width="120" height="40" as="geometry" />
        </mxCell>
        <mxCell id="p0zd2kvGIdmpdCBqgYAA-33" value="" style="rounded=0;html=1;jettySize=auto;orthogonalLoop=1;fontSize=11;endArrow=block;endFill=0;endSize=8;strokeWidth=1;shadow=0;labelBackgroundColor=none;edgeStyle=orthogonalEdgeStyle;entryX=0.635;entryY=-0.09;entryDx=0;entryDy=0;entryPerimeter=0;" edge="1" parent="WIyWlLk6GJQsqaUBKTNV-1" target="p0zd2kvGIdmpdCBqgYAA-34">
          <mxGeometry relative="1" as="geometry">
            <mxPoint x="489.55" y="460" as="sourcePoint" />
            <mxPoint x="489.92" y="505" as="targetPoint" />
          </mxGeometry>
        </mxCell>
        <mxCell id="p0zd2kvGIdmpdCBqgYAA-34" value="Resta" style="rounded=1;whiteSpace=wrap;html=1;fontSize=12;glass=0;strokeWidth=1;shadow=0;fillColor=#d5e8d4;strokeColor=#82b366;" vertex="1" parent="WIyWlLk6GJQsqaUBKTNV-1">
          <mxGeometry x="380" y="670" width="120" height="40" as="geometry" />
        </mxCell>
        <mxCell id="p0zd2kvGIdmpdCBqgYAA-35" value="&lt;font style=&quot;font-size: 15px;&quot;&gt;Solicitar el primer número&lt;/font&gt;" style="rounded=1;whiteSpace=wrap;html=1;fontSize=12;glass=0;strokeWidth=1;shadow=0;fillColor=#ffe6cc;strokeColor=#d79b00;" vertex="1" parent="WIyWlLk6GJQsqaUBKTNV-1">
          <mxGeometry x="70" y="910" width="250" height="70" as="geometry" />
        </mxCell>
        <mxCell id="p0zd2kvGIdmpdCBqgYAA-36" value="&lt;font style=&quot;font-size: 15px;&quot;&gt;Solicitar el segundo número&lt;/font&gt;" style="rounded=1;whiteSpace=wrap;html=1;fontSize=12;glass=0;strokeWidth=1;shadow=0;fillColor=#ffe6cc;strokeColor=#d79b00;" vertex="1" parent="WIyWlLk6GJQsqaUBKTNV-1">
          <mxGeometry x="80" y="1120" width="250" height="70" as="geometry" />
        </mxCell>
        <mxCell id="p0zd2kvGIdmpdCBqgYAA-37" value="" style="rounded=0;html=1;jettySize=auto;orthogonalLoop=1;fontSize=11;endArrow=block;endFill=0;endSize=8;strokeWidth=1;shadow=0;labelBackgroundColor=none;edgeStyle=orthogonalEdgeStyle;entryX=0;entryY=0.5;entryDx=0;entryDy=0;exitX=0.5;exitY=1;exitDx=0;exitDy=0;" edge="1" parent="WIyWlLk6GJQsqaUBKTNV-1" source="p0zd2kvGIdmpdCBqgYAA-28" target="p0zd2kvGIdmpdCBqgYAA-35">
          <mxGeometry relative="1" as="geometry">
            <mxPoint x="-100.56000000000003" y="710" as="sourcePoint" />
            <mxPoint x="-110" y="830" as="targetPoint" />
          </mxGeometry>
        </mxCell>
        <mxCell id="p0zd2kvGIdmpdCBqgYAA-38" value="" style="rounded=0;html=1;jettySize=auto;orthogonalLoop=1;fontSize=11;endArrow=block;endFill=0;endSize=8;strokeWidth=1;shadow=0;labelBackgroundColor=none;edgeStyle=orthogonalEdgeStyle;entryX=0.038;entryY=0.021;entryDx=0;entryDy=0;entryPerimeter=0;exitX=0.5;exitY=1;exitDx=0;exitDy=0;" edge="1" parent="WIyWlLk6GJQsqaUBKTNV-1" source="p0zd2kvGIdmpdCBqgYAA-26" target="p0zd2kvGIdmpdCBqgYAA-35">
          <mxGeometry relative="1" as="geometry">
            <mxPoint x="48.889999999999986" y="720" as="sourcePoint" />
            <mxPoint x="49.16" y="780" as="targetPoint" />
          </mxGeometry>
        </mxCell>
        <mxCell id="p0zd2kvGIdmpdCBqgYAA-39" value="" style="rounded=0;html=1;jettySize=auto;orthogonalLoop=1;fontSize=11;endArrow=block;endFill=0;endSize=8;strokeWidth=1;shadow=0;labelBackgroundColor=none;edgeStyle=orthogonalEdgeStyle;entryX=0.5;entryY=0;entryDx=0;entryDy=0;exitX=0.5;exitY=1;exitDx=0;exitDy=0;" edge="1" parent="WIyWlLk6GJQsqaUBKTNV-1" source="WIyWlLk6GJQsqaUBKTNV-11" target="p0zd2kvGIdmpdCBqgYAA-35">
          <mxGeometry relative="1" as="geometry">
            <mxPoint x="210" y="710" as="sourcePoint" />
            <mxPoint x="210.61" y="871" as="targetPoint" />
          </mxGeometry>
        </mxCell>
        <mxCell id="p0zd2kvGIdmpdCBqgYAA-40" value="" style="rounded=0;html=1;jettySize=auto;orthogonalLoop=1;fontSize=11;endArrow=block;endFill=0;endSize=8;strokeWidth=1;shadow=0;labelBackgroundColor=none;edgeStyle=orthogonalEdgeStyle;entryX=1;entryY=0.5;entryDx=0;entryDy=0;exitX=0.5;exitY=1;exitDx=0;exitDy=0;" edge="1" parent="WIyWlLk6GJQsqaUBKTNV-1" source="p0zd2kvGIdmpdCBqgYAA-34" target="p0zd2kvGIdmpdCBqgYAA-35">
          <mxGeometry relative="1" as="geometry">
            <mxPoint x="438.5" y="710" as="sourcePoint" />
            <mxPoint x="414" y="900" as="targetPoint" />
          </mxGeometry>
        </mxCell>
        <mxCell id="p0zd2kvGIdmpdCBqgYAA-41" value="" style="rounded=0;html=1;jettySize=auto;orthogonalLoop=1;fontSize=11;endArrow=block;endFill=0;endSize=8;strokeWidth=1;shadow=0;labelBackgroundColor=none;edgeStyle=orthogonalEdgeStyle;entryX=0.5;entryY=0;entryDx=0;entryDy=0;" edge="1" parent="WIyWlLk6GJQsqaUBKTNV-1" target="p0zd2kvGIdmpdCBqgYAA-36">
          <mxGeometry relative="1" as="geometry">
            <mxPoint x="160" y="978" as="sourcePoint" />
            <mxPoint x="191.11" y="1169" as="targetPoint" />
          </mxGeometry>
        </mxCell>
        <mxCell id="p0zd2kvGIdmpdCBqgYAA-42" value="&lt;span style=&quot;font-size: 15px;&quot;&gt;Realizar la operación&lt;/span&gt;" style="rounded=1;whiteSpace=wrap;html=1;fontSize=12;glass=0;strokeWidth=1;shadow=0;fillColor=#f8cecc;strokeColor=#b85450;" vertex="1" parent="WIyWlLk6GJQsqaUBKTNV-1">
          <mxGeometry x="80" y="1350" width="250" height="70" as="geometry" />
        </mxCell>
        <mxCell id="p0zd2kvGIdmpdCBqgYAA-43" value="" style="rounded=0;html=1;jettySize=auto;orthogonalLoop=1;fontSize=11;endArrow=block;endFill=0;endSize=8;strokeWidth=1;shadow=0;labelBackgroundColor=none;edgeStyle=orthogonalEdgeStyle;entryX=0.5;entryY=0;entryDx=0;entryDy=0;" edge="1" parent="WIyWlLk6GJQsqaUBKTNV-1" target="p0zd2kvGIdmpdCBqgYAA-42">
          <mxGeometry relative="1" as="geometry">
            <mxPoint x="172.25" y="1190" as="sourcePoint" />
            <mxPoint x="217.25" y="1332" as="targetPoint" />
          </mxGeometry>
        </mxCell>
        <mxCell id="p0zd2kvGIdmpdCBqgYAA-44" value="&lt;span style=&quot;font-size: 15px;&quot;&gt;Convertir cadena y mostrar&lt;/span&gt;" style="rounded=1;whiteSpace=wrap;html=1;fontSize=12;glass=0;strokeWidth=1;shadow=0;fillColor=#e1d5e7;strokeColor=#9673a6;" vertex="1" parent="WIyWlLk6GJQsqaUBKTNV-1">
          <mxGeometry x="80" y="1540" width="250" height="70" as="geometry" />
        </mxCell>
        <mxCell id="p0zd2kvGIdmpdCBqgYAA-45" value="" style="rounded=0;html=1;jettySize=auto;orthogonalLoop=1;fontSize=11;endArrow=block;endFill=0;endSize=8;strokeWidth=1;shadow=0;labelBackgroundColor=none;edgeStyle=orthogonalEdgeStyle;entryX=0.5;entryY=0;entryDx=0;entryDy=0;" edge="1" parent="WIyWlLk6GJQsqaUBKTNV-1" target="p0zd2kvGIdmpdCBqgYAA-44">
          <mxGeometry relative="1" as="geometry">
            <mxPoint x="170" y="1420" as="sourcePoint" />
            <mxPoint x="210" y="1530" as="targetPoint" />
          </mxGeometry>
        </mxCell>
        <mxCell id="p0zd2kvGIdmpdCBqgYAA-46" value="&lt;span style=&quot;font-size: 15px;&quot;&gt;Mostrar resultado&lt;/span&gt;" style="rounded=1;whiteSpace=wrap;html=1;fontSize=12;glass=0;strokeWidth=1;shadow=0;fillColor=#e1d5e7;strokeColor=#9673a6;" vertex="1" parent="WIyWlLk6GJQsqaUBKTNV-1">
          <mxGeometry x="90" y="1740" width="250" height="70" as="geometry" />
        </mxCell>
        <mxCell id="p0zd2kvGIdmpdCBqgYAA-47" value="" style="rounded=0;html=1;jettySize=auto;orthogonalLoop=1;fontSize=11;endArrow=block;endFill=0;endSize=8;strokeWidth=1;shadow=0;labelBackgroundColor=none;edgeStyle=orthogonalEdgeStyle;entryX=0.5;entryY=0;entryDx=0;entryDy=0;" edge="1" parent="WIyWlLk6GJQsqaUBKTNV-1" target="p0zd2kvGIdmpdCBqgYAA-46">
          <mxGeometry relative="1" as="geometry">
            <mxPoint x="177.22" y="1610" as="sourcePoint" />
            <mxPoint x="212.22" y="1730" as="targetPoint" />
          </mxGeometry>
        </mxCell>
        <mxCell id="p0zd2kvGIdmpdCBqgYAA-48" value="FIN" style="rounded=1;whiteSpace=wrap;html=1;fontSize=12;glass=0;strokeWidth=1;shadow=0;" vertex="1" parent="WIyWlLk6GJQsqaUBKTNV-1">
          <mxGeometry x="310" y="585" width="120" height="40" as="geometry" />
        </mxCell>
        <mxCell id="p0zd2kvGIdmpdCBqgYAA-50" value="" style="rounded=0;html=1;jettySize=auto;orthogonalLoop=1;fontSize=11;endArrow=block;endFill=0;endSize=8;strokeWidth=1;shadow=0;labelBackgroundColor=none;edgeStyle=orthogonalEdgeStyle;entryX=0.5;entryY=0;entryDx=0;entryDy=0;exitX=0.5;exitY=1;exitDx=0;exitDy=0;" edge="1" parent="WIyWlLk6GJQsqaUBKTNV-1" source="p0zd2kvGIdmpdCBqgYAA-30" target="p0zd2kvGIdmpdCBqgYAA-48">
          <mxGeometry relative="1" as="geometry">
            <mxPoint x="330" y="540" as="sourcePoint" />
            <mxPoint x="370" y="590" as="targetPoint" />
          </mxGeometry>
        </mxCell>
      </root>
    </mxGraphModel>
  </diagram>
</mxfile>
